<mxfile host="app.diagrams.net" modified="2023-04-24T20:23:32.780Z" agent="Mozilla/5.0 (Windows NT 10.0; Win64; x64) AppleWebKit/537.36 (KHTML, like Gecko) Chrome/112.0.0.0 Safari/537.36" etag="9oVT9BVGyEpogl5_xqCX" version="21.2.1" type="device">
  <diagram name="Page-1" id="e7e014a7-5840-1c2e-5031-d8a46d1fe8dd">
    <mxGraphModel dx="1354" dy="760" grid="0" gridSize="10" guides="1" tooltips="1" connect="1" arrows="1" fold="1" page="1" pageScale="1" pageWidth="1169" pageHeight="826" background="none" math="0" shadow="0">
      <root>
        <mxCell id="0" />
        <mxCell id="1" parent="0" />
        <mxCell id="2" value="Usuário" style="swimlane;whiteSpace=wrap;spacing=5;swimlaneFillColor=#FFF2CC;fillColor=#FFF2CC;" parent="1" vertex="1">
          <mxGeometry x="48" y="29" width="400" height="1278" as="geometry">
            <mxRectangle x="164.5" y="128" width="90" height="30" as="alternateBounds" />
          </mxGeometry>
        </mxCell>
        <mxCell id="7" value="Acessar o site da Associação Gaúcha de Radiologia" style="strokeColor=default;whiteSpace=wrap;rounded=1;" parent="2" vertex="1">
          <mxGeometry x="114.16000000000001" y="125" width="125.4" height="57" as="geometry" />
        </mxCell>
        <mxCell id="8" value="Realizar o login com CPF e senha" style="strokeColor=default;whiteSpace=wrap;rounded=1;glass=0;" parent="2" vertex="1">
          <mxGeometry x="114.16000000000001" y="238" width="125.4" height="50" as="geometry" />
        </mxCell>
        <mxCell id="9" value="" style="endArrow=open;strokeColor=default;endFill=0;rounded=0;endSize=8;" parent="2" source="7" target="8" edge="1">
          <mxGeometry relative="1" as="geometry" />
        </mxCell>
        <mxCell id="NOjX33mFwWhNziLndKdL-74" style="edgeStyle=orthogonalEdgeStyle;rounded=0;orthogonalLoop=1;jettySize=auto;html=1;exitX=0.5;exitY=1;exitDx=0;exitDy=0;entryX=0.5;entryY=0;entryDx=0;entryDy=0;endArrow=open;endFill=0;endSize=8;" edge="1" parent="2" source="NOjX33mFwWhNziLndKdL-58" target="NOjX33mFwWhNziLndKdL-73">
          <mxGeometry relative="1" as="geometry" />
        </mxCell>
        <mxCell id="NOjX33mFwWhNziLndKdL-58" value="Acessar a página inicial" style="strokeColor=default;whiteSpace=wrap;rounded=1;glass=0;spacing=3;" vertex="1" parent="2">
          <mxGeometry x="114.16000000000001" y="411" width="125.4" height="50" as="geometry" />
        </mxCell>
        <mxCell id="NOjX33mFwWhNziLndKdL-63" value="Sim" style="text;html=1;strokeColor=none;fillColor=none;align=center;verticalAlign=middle;whiteSpace=wrap;rounded=0;" vertex="1" parent="2">
          <mxGeometry x="263.36" y="416" width="30" height="20" as="geometry" />
        </mxCell>
        <mxCell id="NOjX33mFwWhNziLndKdL-72" value="Não" style="text;html=1;strokeColor=none;fillColor=none;align=center;verticalAlign=middle;whiteSpace=wrap;rounded=0;" vertex="1" parent="2">
          <mxGeometry x="187.35999999999999" y="334" width="30" height="20" as="geometry" />
        </mxCell>
        <mxCell id="NOjX33mFwWhNziLndKdL-81" style="edgeStyle=orthogonalEdgeStyle;rounded=0;orthogonalLoop=1;jettySize=auto;html=1;exitX=0.5;exitY=1;exitDx=0;exitDy=0;entryX=0.5;entryY=0;entryDx=0;entryDy=0;endArrow=open;endFill=0;endSize=8;" edge="1" parent="2" source="NOjX33mFwWhNziLndKdL-73" target="NOjX33mFwWhNziLndKdL-75">
          <mxGeometry relative="1" as="geometry" />
        </mxCell>
        <mxCell id="NOjX33mFwWhNziLndKdL-73" value="Acessar o ambiente do jogo" style="strokeColor=default;whiteSpace=wrap;rounded=1;glass=0;spacing=3;" vertex="1" parent="2">
          <mxGeometry x="114.16000000000001" y="514" width="125.4" height="50" as="geometry" />
        </mxCell>
        <mxCell id="NOjX33mFwWhNziLndKdL-82" style="edgeStyle=orthogonalEdgeStyle;rounded=0;orthogonalLoop=1;jettySize=auto;html=1;exitX=0.5;exitY=1;exitDx=0;exitDy=0;entryX=0.5;entryY=0;entryDx=0;entryDy=0;endSize=8;endArrow=open;endFill=0;" edge="1" parent="2" source="NOjX33mFwWhNziLndKdL-75" target="NOjX33mFwWhNziLndKdL-76">
          <mxGeometry relative="1" as="geometry" />
        </mxCell>
        <mxCell id="NOjX33mFwWhNziLndKdL-75" value="Iniciar o jogo" style="strokeColor=default;whiteSpace=wrap;rounded=1;glass=0;spacing=3;" vertex="1" parent="2">
          <mxGeometry x="114.16000000000001" y="616" width="125.4" height="50" as="geometry" />
        </mxCell>
        <mxCell id="NOjX33mFwWhNziLndKdL-83" style="edgeStyle=orthogonalEdgeStyle;rounded=0;orthogonalLoop=1;jettySize=auto;html=1;exitX=0.5;exitY=1;exitDx=0;exitDy=0;entryX=0.5;entryY=0;entryDx=0;entryDy=0;endArrow=open;endFill=0;endSize=8;" edge="1" parent="2" source="NOjX33mFwWhNziLndKdL-76" target="NOjX33mFwWhNziLndKdL-77">
          <mxGeometry relative="1" as="geometry" />
        </mxCell>
        <mxCell id="NOjX33mFwWhNziLndKdL-76" value="Criar um avatar" style="strokeColor=default;whiteSpace=wrap;rounded=1;glass=0;spacing=3;" vertex="1" parent="2">
          <mxGeometry x="114.16000000000001" y="717" width="125.4" height="50" as="geometry" />
        </mxCell>
        <mxCell id="NOjX33mFwWhNziLndKdL-84" style="edgeStyle=orthogonalEdgeStyle;rounded=0;orthogonalLoop=1;jettySize=auto;html=1;exitX=0.5;exitY=1;exitDx=0;exitDy=0;entryX=0.5;entryY=0;entryDx=0;entryDy=0;endArrow=open;endFill=0;endSize=8;" edge="1" parent="2" source="NOjX33mFwWhNziLndKdL-77" target="NOjX33mFwWhNziLndKdL-78">
          <mxGeometry relative="1" as="geometry" />
        </mxCell>
        <mxCell id="NOjX33mFwWhNziLndKdL-77" value="Escolher uma porta-caminho" style="strokeColor=default;whiteSpace=wrap;rounded=1;glass=0;spacing=3;" vertex="1" parent="2">
          <mxGeometry x="114.16000000000001" y="817" width="125.4" height="50" as="geometry" />
        </mxCell>
        <mxCell id="NOjX33mFwWhNziLndKdL-85" style="edgeStyle=orthogonalEdgeStyle;rounded=0;orthogonalLoop=1;jettySize=auto;html=1;exitX=0.5;exitY=1;exitDx=0;exitDy=0;entryX=0.5;entryY=0;entryDx=0;entryDy=0;endSize=8;endArrow=open;endFill=0;" edge="1" parent="2" source="NOjX33mFwWhNziLndKdL-78" target="NOjX33mFwWhNziLndKdL-79">
          <mxGeometry relative="1" as="geometry" />
        </mxCell>
        <mxCell id="NOjX33mFwWhNziLndKdL-78" value="Resolver o enigma" style="strokeColor=default;whiteSpace=wrap;rounded=1;glass=0;spacing=3;" vertex="1" parent="2">
          <mxGeometry x="114.16000000000001" y="917" width="125.4" height="50" as="geometry" />
        </mxCell>
        <mxCell id="NOjX33mFwWhNziLndKdL-86" style="edgeStyle=orthogonalEdgeStyle;rounded=1;orthogonalLoop=1;jettySize=auto;html=1;exitX=1;exitY=0.5;exitDx=0;exitDy=0;entryX=1;entryY=0.5;entryDx=0;entryDy=0;endArrow=open;endFill=0;endSize=8;" edge="1" parent="2" source="NOjX33mFwWhNziLndKdL-79" target="NOjX33mFwWhNziLndKdL-78">
          <mxGeometry relative="1" as="geometry" />
        </mxCell>
        <mxCell id="NOjX33mFwWhNziLndKdL-88" style="edgeStyle=orthogonalEdgeStyle;rounded=0;orthogonalLoop=1;jettySize=auto;html=1;exitX=0.5;exitY=1;exitDx=0;exitDy=0;entryX=0.5;entryY=0;entryDx=0;entryDy=0;endArrow=open;endFill=0;endSize=8;" edge="1" parent="2" source="NOjX33mFwWhNziLndKdL-79" target="NOjX33mFwWhNziLndKdL-87">
          <mxGeometry relative="1" as="geometry" />
        </mxCell>
        <mxCell id="NOjX33mFwWhNziLndKdL-79" value="O enigma foi resolvido e não existem mais enigmas a serem resolvidos?" style="shape=hexagon;perimeter=hexagonPerimeter2;whiteSpace=wrap;html=1;fixedSize=1;spacing=3;" vertex="1" parent="2">
          <mxGeometry x="38.36" y="1018" width="277" height="50" as="geometry" />
        </mxCell>
        <mxCell id="NOjX33mFwWhNziLndKdL-90" style="edgeStyle=orthogonalEdgeStyle;rounded=0;orthogonalLoop=1;jettySize=auto;html=1;exitX=0.5;exitY=1;exitDx=0;exitDy=0;entryX=0.5;entryY=0;entryDx=0;entryDy=0;endArrow=open;endFill=0;endSize=8;" edge="1" parent="2" source="NOjX33mFwWhNziLndKdL-87" target="NOjX33mFwWhNziLndKdL-89">
          <mxGeometry relative="1" as="geometry" />
        </mxCell>
        <mxCell id="NOjX33mFwWhNziLndKdL-91" style="edgeStyle=orthogonalEdgeStyle;rounded=1;orthogonalLoop=1;jettySize=auto;html=1;exitX=1;exitY=0.5;exitDx=0;exitDy=0;entryX=1;entryY=0.5;entryDx=0;entryDy=0;endArrow=open;endFill=0;endSize=8;" edge="1" parent="2" source="NOjX33mFwWhNziLndKdL-87" target="NOjX33mFwWhNziLndKdL-77">
          <mxGeometry relative="1" as="geometry">
            <Array as="points">
              <mxPoint x="361.86" y="1143" />
              <mxPoint x="361.86" y="843" />
            </Array>
          </mxGeometry>
        </mxCell>
        <mxCell id="NOjX33mFwWhNziLndKdL-87" value="O jogador já concluiu todas as portas-caminhos?" style="shape=hexagon;perimeter=hexagonPerimeter2;whiteSpace=wrap;html=1;fixedSize=1;spacing=3;" vertex="1" parent="2">
          <mxGeometry x="38.11" y="1118" width="277" height="50" as="geometry" />
        </mxCell>
        <mxCell id="NOjX33mFwWhNziLndKdL-89" value="" style="ellipse;html=1;shape=endState;fillColor=strokeColor;" vertex="1" parent="2">
          <mxGeometry x="161.60999999999999" y="1218" width="30" height="30" as="geometry" />
        </mxCell>
        <mxCell id="NOjX33mFwWhNziLndKdL-92" value="Sim" style="text;html=1;strokeColor=none;fillColor=none;align=center;verticalAlign=middle;whiteSpace=wrap;rounded=0;" vertex="1" parent="2">
          <mxGeometry x="178.85999999999999" y="1083" width="30" height="20" as="geometry" />
        </mxCell>
        <mxCell id="NOjX33mFwWhNziLndKdL-93" value="Sim" style="text;html=1;strokeColor=none;fillColor=none;align=center;verticalAlign=middle;whiteSpace=wrap;rounded=0;" vertex="1" parent="2">
          <mxGeometry x="178.85999999999999" y="1183" width="30" height="20" as="geometry" />
        </mxCell>
        <mxCell id="NOjX33mFwWhNziLndKdL-94" value="Não" style="text;html=1;strokeColor=none;fillColor=none;align=center;verticalAlign=middle;whiteSpace=wrap;rounded=0;" vertex="1" parent="2">
          <mxGeometry x="263.36" y="923" width="30" height="20" as="geometry" />
        </mxCell>
        <mxCell id="NOjX33mFwWhNziLndKdL-95" value="Não" style="text;html=1;strokeColor=none;fillColor=none;align=center;verticalAlign=middle;whiteSpace=wrap;rounded=0;" vertex="1" parent="2">
          <mxGeometry x="263.36" y="823" width="30" height="20" as="geometry" />
        </mxCell>
        <mxCell id="NOjX33mFwWhNziLndKdL-97" style="edgeStyle=orthogonalEdgeStyle;rounded=0;orthogonalLoop=1;jettySize=auto;html=1;exitX=0.5;exitY=1;exitDx=0;exitDy=0;entryX=0.5;entryY=0;entryDx=0;entryDy=0;endArrow=open;endFill=0;endSize=8;" edge="1" parent="2" source="NOjX33mFwWhNziLndKdL-96" target="7">
          <mxGeometry relative="1" as="geometry" />
        </mxCell>
        <mxCell id="NOjX33mFwWhNziLndKdL-96" value="" style="ellipse;fillColor=strokeColor;html=1;" vertex="1" parent="2">
          <mxGeometry x="161.60999999999999" y="48" width="30" height="30" as="geometry" />
        </mxCell>
        <mxCell id="3" value="Associação Gaúcha de Radiologia" style="swimlane;whiteSpace=wrap;strokeColor=default;swimlaneFillColor=#D5E8D4;fillColor=#D5E8D4;" parent="1" vertex="1">
          <mxGeometry x="448" y="29" width="400" height="1278" as="geometry" />
        </mxCell>
        <mxCell id="NOjX33mFwWhNziLndKdL-57" style="edgeStyle=orthogonalEdgeStyle;rounded=0;orthogonalLoop=1;jettySize=auto;html=1;exitX=0.5;exitY=1;exitDx=0;exitDy=0;entryX=0.5;entryY=0;entryDx=0;entryDy=0;endArrow=open;endFill=0;endSize=8;" edge="1" parent="3" source="NOjX33mFwWhNziLndKdL-41" target="NOjX33mFwWhNziLndKdL-56">
          <mxGeometry relative="1" as="geometry" />
        </mxCell>
        <mxCell id="NOjX33mFwWhNziLndKdL-41" value="Autenticar usuário" style="strokeColor=default;whiteSpace=wrap;rounded=1;glass=0;" vertex="1" parent="3">
          <mxGeometry x="145" y="238" width="110" height="50" as="geometry" />
        </mxCell>
        <mxCell id="NOjX33mFwWhNziLndKdL-56" value="A autenticação foi bem sucedida?" style="shape=hexagon;perimeter=hexagonPerimeter2;whiteSpace=wrap;html=1;fixedSize=1;spacing=3;spacingTop=0;" vertex="1" parent="3">
          <mxGeometry x="110" y="334" width="180" height="40" as="geometry" />
        </mxCell>
        <mxCell id="NOjX33mFwWhNziLndKdL-47" style="edgeStyle=orthogonalEdgeStyle;rounded=0;orthogonalLoop=1;jettySize=auto;html=1;exitX=1;exitY=0.5;exitDx=0;exitDy=0;entryX=0;entryY=0.5;entryDx=0;entryDy=0;endArrow=open;endFill=0;endSize=8;" edge="1" parent="1" source="8" target="NOjX33mFwWhNziLndKdL-41">
          <mxGeometry relative="1" as="geometry" />
        </mxCell>
        <mxCell id="NOjX33mFwWhNziLndKdL-60" style="edgeStyle=orthogonalEdgeStyle;rounded=1;orthogonalLoop=1;jettySize=auto;html=1;exitX=0;exitY=0.5;exitDx=0;exitDy=0;entryX=0.5;entryY=1;entryDx=0;entryDy=0;endArrow=open;endFill=0;endSize=8;" edge="1" parent="1" source="NOjX33mFwWhNziLndKdL-56" target="8">
          <mxGeometry relative="1" as="geometry" />
        </mxCell>
        <mxCell id="NOjX33mFwWhNziLndKdL-61" style="orthogonalLoop=1;jettySize=auto;html=1;exitX=0.5;exitY=1;exitDx=0;exitDy=0;entryX=1;entryY=0.5;entryDx=0;entryDy=0;endSize=8;endArrow=open;endFill=0;edgeStyle=orthogonalEdgeStyle;elbow=vertical;rounded=1;" edge="1" parent="1" source="NOjX33mFwWhNziLndKdL-56" target="NOjX33mFwWhNziLndKdL-58">
          <mxGeometry relative="1" as="geometry" />
        </mxCell>
      </root>
    </mxGraphModel>
  </diagram>
</mxfile>
